<svg xmlns="http://www.w3.org/2000/svg" xmlns:xlink="http://www.w3.org/1999/xlink" width="500" zoomAndPan="magnify" viewBox="0 0 375 374.999991" height="500" preserveAspectRatio="xMidYMid meet" version="1.0"><defs><g/><clipPath id="ac16c942bb"><path d="M 19.5 0 L 355.5 0 C 360.671875 0 365.632812 2.054688 369.289062 5.710938 C 372.945312 9.367188 375 14.328125 375 19.5 L 375 355.5 C 375 360.671875 372.945312 365.632812 369.289062 369.289062 C 365.632812 372.945312 360.671875 375 355.5 375 L 19.5 375 C 8.730469 375 0 366.269531 0 355.5 L 0 19.5 C 0 8.730469 8.730469 0 19.5 0 Z M 19.5 0 " clip-rule="nonzero"/></clipPath><clipPath id="4c53d569c7"><path d="M 42.195312 75.066406 L 111 75.066406 L 111 300 L 42.195312 300 Z M 42.195312 75.066406 " clip-rule="nonzero"/></clipPath><clipPath id="63013bbb16"><path d="M 270 75.066406 L 338.703125 75.066406 L 338.703125 300 L 270 300 Z M 270 75.066406 " clip-rule="nonzero"/></clipPath></defs><g clip-path="url(#ac16c942bb)"><rect x="-37.5" width="450" fill="#1649ff" y="-37.499999" height="449.999989" fill-opacity="1"/></g><g clip-path="url(#4c53d569c7)"><path fill="#efefef" d="M 104.703125 100.050781 L 110.949219 100.050781 L 110.949219 75.066406 L 104.703125 75.066406 C 84.003906 75.066406 67.226562 91.84375 67.226562 112.542969 L 67.226562 156.265625 C 67.226562 160.199219 65.375 163.898438 62.226562 166.257812 L 47.238281 177.503906 C 44.238281 179.753906 42.40625 183.230469 42.25 186.976562 C 42.097656 190.722656 43.632812 194.34375 46.433594 196.835938 L 63.03125 211.582031 C 65.699219 213.953125 67.226562 217.351562 67.226562 220.921875 L 67.226562 262.449219 C 67.226562 283.148438 84.003906 299.925781 104.703125 299.925781 L 110.949219 299.925781 L 110.949219 274.941406 L 104.703125 274.941406 C 97.800781 274.941406 92.210938 269.347656 92.210938 262.449219 L 92.210938 220.921875 C 92.210938 210.214844 87.628906 200.019531 79.628906 192.90625 L 74.460938 188.316406 L 77.21875 186.246094 C 86.65625 179.167969 92.210938 168.0625 92.210938 156.265625 L 92.210938 112.542969 C 92.210938 105.644531 97.800781 100.050781 104.703125 100.050781 Z M 104.703125 100.050781 " fill-opacity="1" fill-rule="evenodd"/></g><g clip-path="url(#63013bbb16)"><path fill="#efefef" d="M 276.429688 100.050781 L 270.183594 100.050781 L 270.183594 75.066406 L 276.429688 75.066406 C 297.128906 75.066406 313.90625 91.84375 313.90625 112.542969 L 313.90625 156.265625 C 313.90625 160.199219 315.757812 163.898438 318.902344 166.257812 L 333.894531 177.503906 C 336.894531 179.753906 338.722656 183.230469 338.878906 186.976562 C 339.035156 190.722656 337.5 194.34375 334.695312 196.835938 L 318.097656 211.582031 C 315.433594 213.953125 313.90625 217.351562 313.90625 220.921875 L 313.90625 262.449219 C 313.90625 283.148438 297.128906 299.925781 276.429688 299.925781 L 270.183594 299.925781 L 270.183594 274.941406 L 276.429688 274.941406 C 283.328125 274.941406 288.921875 269.347656 288.921875 262.449219 L 288.921875 220.921875 C 288.921875 210.214844 293.5 200.019531 301.503906 192.90625 L 306.671875 188.316406 L 303.914062 186.246094 C 294.476562 179.167969 288.921875 168.0625 288.921875 156.265625 L 288.921875 112.542969 C 288.921875 105.644531 283.328125 100.050781 276.429688 100.050781 Z M 276.429688 100.050781 " fill-opacity="1" fill-rule="evenodd"/></g><g fill="#ffffff" fill-opacity="1"><g transform="translate(110.302331, 263.089221)"><g><path d="M 145.1875 1.109375 L 121.0625 1.109375 L 47.578125 -111.015625 C 42.515625 -118.898438 39.382812 -123.882812 38.1875 -125.96875 C 39.082031 -116.144531 39.53125 -111.160156 39.53125 -111.015625 L 39.53125 0 L 14.734375 0 L 14.734375 -149.65625 C 14.734375 -149.800781 14.472656 -150.914062 13.953125 -153 C 13.429688 -155.082031 12.910156 -157.238281 12.390625 -159.46875 C 11.867188 -161.707031 11.609375 -162.976562 11.609375 -163.28125 L 48.25 -163.28125 L 112.578125 -65.4375 C 114.804688 -62.164062 117.859375 -57.253906 121.734375 -50.703125 C 120.835938 -61.867188 120.390625 -67.601562 120.390625 -67.90625 L 120.390625 -163.28125 L 145.1875 -163.28125 Z M 145.1875 1.109375 "/></g></g></g></svg>